<svg width="35" height="35" viewBox="0 0 35 35" fill="none" xmlns="http://www.w3.org/2000/svg">
<path d="M8.12438 11.4109C7.70657 8.659 9.64688 6.18713 12.6109 5.2815C13.1369 5.12068 13.7045 5.16646 14.1979 5.40951C14.6913 5.65256 15.0735 6.0746 15.2666 6.58963L16.2181 9.12713C16.3713 9.53534 16.399 9.98002 16.2977 10.4041C16.1963 10.8282 15.9706 11.2123 15.6494 11.5071L12.8188 14.0993C12.6792 14.2274 12.5753 14.3894 12.517 14.5695C12.4587 14.7497 12.4481 14.9419 12.4863 15.1274L12.5125 15.2412L12.5803 15.5256C12.9323 16.9073 13.4687 18.2354 14.175 19.474C14.9444 20.7902 15.8992 21.9889 17.01 23.0331L17.0975 23.1118C17.2388 23.2372 17.4102 23.3239 17.595 23.3634C17.7798 23.4029 17.9716 23.3938 18.1519 23.3371L21.8116 22.1843C22.2275 22.0537 22.6729 22.0504 23.0907 22.1747C23.5086 22.2991 23.8797 22.5454 24.1566 22.8821L25.8891 24.9843C26.6109 25.8593 26.5234 27.1456 25.6944 27.9178C23.4259 30.0331 20.3066 30.4662 18.1366 28.7228C15.4766 26.5772 13.2343 23.9603 11.5216 21.0031C9.79495 18.0481 8.64164 14.7937 8.12219 11.4109H8.12438ZM14.7809 15.2718L17.1259 13.1193C17.7687 12.5299 18.2206 11.7618 18.4237 10.9136C18.6268 10.0654 18.5717 9.17596 18.2656 8.35931L17.3163 5.82181C16.9276 4.78548 16.1585 3.93632 15.1655 3.44737C14.1726 2.95841 13.0306 2.86646 11.9722 3.19025C8.29063 4.31681 5.33532 7.61775 5.96094 11.7412C6.39844 14.6199 7.40688 18.2818 9.63157 22.1056C11.4794 25.2943 13.8982 28.1157 16.7672 30.429C20.0222 33.0431 24.3666 32.1506 27.1884 29.5212C28.8641 27.9593 29.0347 25.3649 27.58 23.5974L25.8475 21.4931C25.2933 20.8204 24.5507 20.3285 23.7151 20.0807C22.8795 19.8328 21.9889 19.8402 21.1575 20.1018L18.1191 21.0578C17.3346 20.2489 16.6474 19.351 16.0716 18.3824C15.5153 17.4032 15.0819 16.3592 14.7809 15.274V15.2718Z" fill="#3EAB36"/>
</svg>
