<svg width="35" height="35" viewBox="0 0 35 35" fill="none" xmlns="http://www.w3.org/2000/svg">
<path d="M23.8584 20.4167C23.975 19.4542 24.0625 18.4917 24.0625 17.5001C24.0625 16.5084 23.975 15.5459 23.8584 14.5834H28.7875C29.0209 15.5167 29.1667 16.4938 29.1667 17.5001C29.1667 18.5063 29.0209 19.4834 28.7875 20.4167H23.8584ZM21.2771 28.5251C22.1521 26.9063 22.8229 25.1563 23.2896 23.3334H27.5917C26.1788 25.7663 23.9373 27.6092 21.2771 28.5251V28.5251ZM20.9125 20.4167H14.0875C13.9417 19.4542 13.8542 18.4917 13.8542 17.5001C13.8542 16.5084 13.9417 15.5313 14.0875 14.5834H20.9125C21.0438 15.5313 21.1459 16.5084 21.1459 17.5001C21.1459 18.4917 21.0438 19.4542 20.9125 20.4167ZM17.5 29.1084C16.2896 27.3584 15.3125 25.4188 14.7146 23.3334H20.2854C19.6875 25.4188 18.7104 27.3584 17.5 29.1084ZM11.6667 11.6667H7.40835C8.80669 9.22727 11.0466 7.38142 13.7084 6.47508C12.8334 8.09383 12.1771 9.84383 11.6667 11.6667ZM7.40835 23.3334H11.6667C12.1771 25.1563 12.8334 26.9063 13.7084 28.5251C11.0522 27.6088 8.81542 25.7655 7.40835 23.3334V23.3334ZM6.21252 20.4167C5.97919 19.4834 5.83335 18.5063 5.83335 17.5001C5.83335 16.4938 5.97919 15.5167 6.21252 14.5834H11.1417C11.025 15.5459 10.9375 16.5084 10.9375 17.5001C10.9375 18.4917 11.025 19.4542 11.1417 20.4167H6.21252ZM17.5 5.87717C18.7104 7.62717 19.6875 9.58133 20.2854 11.6667H14.7146C15.3125 9.58133 16.2896 7.62717 17.5 5.87717V5.87717ZM27.5917 11.6667H23.2896C22.8332 9.86054 22.1573 8.11701 21.2771 6.47508C23.9604 7.39383 26.1917 9.24592 27.5917 11.6667ZM17.5 2.91675C9.43544 2.91675 2.91669 9.47925 2.91669 17.5001C2.91669 21.3678 4.45314 25.0772 7.18805 27.8121C8.54223 29.1662 10.1499 30.2404 11.9192 30.9733C13.6886 31.7062 15.5849 32.0834 17.5 32.0834C21.3678 32.0834 25.0771 30.547 27.812 27.8121C30.5469 25.0772 32.0834 21.3678 32.0834 17.5001C32.0834 15.585 31.7061 13.6886 30.9733 11.9193C30.2404 10.15 29.1662 8.5423 27.812 7.18811C26.4578 5.83392 24.8502 4.75972 23.0808 4.02684C21.3115 3.29396 19.4151 2.91675 17.5 2.91675V2.91675Z" fill="#3EAB36"/>
</svg>
